<svg width="592" height="592" xmlns="http://www.w3.org/2000/svg" xmlns:xlink="http://www.w3.org/1999/xlink" overflow="hidden"><defs><clipPath id="clip0"><path d="M354 25 946 25 946 617 354 617Z" fill-rule="evenodd" clip-rule="evenodd"/></clipPath><clipPath id="clip1"><path d="M354 26 945 26 945 616 354 616Z" fill-rule="evenodd" clip-rule="evenodd"/></clipPath><clipPath id="clip2"><path d="M354 26 945 26 945 616 354 616Z" fill-rule="evenodd" clip-rule="evenodd"/></clipPath><clipPath id="clip3"><path d="M354 26 945 26 945 616 354 616Z" fill-rule="evenodd" clip-rule="evenodd"/></clipPath><clipPath id="clip4"><path d="M568 231 732 231 732 394 568 394Z" fill-rule="evenodd" clip-rule="evenodd"/></clipPath><clipPath id="clip5"><path d="M568 231 732 231 732 394 568 394Z" fill-rule="evenodd" clip-rule="evenodd"/></clipPath><clipPath id="clip6"><path d="M568 231 732 231 732 394 568 394Z" fill-rule="evenodd" clip-rule="evenodd"/></clipPath></defs><g clip-path="url(#clip0)" transform="translate(-354 -25)"><g clip-path="url(#clip1)"><g clip-path="url(#clip2)"><g clip-path="url(#clip3)"><path d="M295.449 127.169C211.943 127.169 143.719 195.393 143.719 278.899 143.719 322.562 162.822 364.588 195.023 392.969 219.038 416.984 216.855 468.289 216.309 468.834 216.309 471.563 216.855 473.747 219.038 475.93 220.676 477.567 223.405 478.659 225.588 478.659L364.764 478.659C367.493 478.659 369.676 477.567 371.314 475.93 372.951 474.292 374.043 471.563 374.043 468.834 374.043 468.289 371.314 416.984 395.329 392.969 395.874 392.424 396.42 391.878 396.966 391.332 428.622 362.405 447.179 321.471 447.179 278.899 447.179 195.393 378.955 127.169 295.449 127.169ZM382.775 378.779C382.23 379.325 381.138 380.416 381.138 380.962 359.852 403.885 356.032 441.545 355.486 459.556L234.866 459.556C234.32 441.545 230.5 402.248 207.577 378.779 178.65 353.673 161.73 317.105 161.73 278.353 161.73 204.672 221.221 145.18 294.903 145.18 368.585 145.18 428.076 204.672 428.076 278.353 428.076 317.105 411.702 353.673 382.775 378.779Z" fill="#231F20" transform="matrix(1.0017 0 -0 1 354 26)"/><path d="M294.903 165.92C289.991 165.92 285.625 170.287 285.625 175.199 285.625 180.111 289.991 184.477 294.903 184.477 350.028 184.477 394.237 229.232 394.237 283.811 394.237 288.723 398.603 293.09 403.516 293.09 408.428 293.09 412.794 288.723 412.794 283.811 413.34 218.862 360.398 165.92 294.903 165.92Z" fill="#231F20" transform="matrix(1.0017 0 -0 1 354 26)"/><path d="M355.486 489.029 234.32 489.029C221.767 489.029 211.397 499.399 211.397 511.952 211.397 524.505 221.767 534.875 234.32 534.875L354.94 534.875C368.039 534.329 378.409 524.505 378.409 511.952 378.409 499.399 368.039 489.029 355.486 489.029ZM355.486 515.772 234.32 515.772C232.137 515.772 229.954 514.135 229.954 511.406 229.954 508.677 231.591 507.04 234.32 507.04L354.94 507.04C357.123 507.04 359.306 508.677 359.306 511.406 359.306 514.135 357.669 515.772 355.486 515.772Z" fill="#231F20" transform="matrix(1.0017 0 -0 1 354 26)"/><path d="M337.475 544.154 252.331 544.154C239.778 544.154 229.408 554.524 229.408 567.077 229.408 579.63 239.778 590 252.331 590L337.475 590C350.028 590 360.398 579.63 360.398 567.077 360.398 553.978 350.028 544.154 337.475 544.154ZM337.475 570.897 252.331 570.897C250.148 570.897 247.965 569.26 247.965 566.531 247.965 563.802 249.602 562.165 252.331 562.165L337.475 562.165C339.658 562.165 341.841 563.802 341.841 566.531 341.841 569.26 339.658 570.897 337.475 570.897Z" fill="#231F20" transform="matrix(1.0017 0 -0 1 354 26)"/><path d="M294.903 81.8686C300.361 81.8686 304.182 77.5023 304.182 72.5902L304.182 9.27845C304.182 4.36633 299.815 0 294.903 0 289.991 0 285.625 4.36633 285.625 9.27845L285.625 72.5902C285.625 77.5023 289.991 81.8686 294.903 81.8686Z" fill="#231F20" transform="matrix(1.0017 0 -0 1 354 26)"/><path d="M449.362 46.938C444.996 43.6633 439.538 45.3006 436.809 49.1212L401.878 101.517C398.603 105.883 399.695 111.887 404.061 114.616 405.699 115.708 407.336 116.253 408.973 116.253 412.248 116.253 414.977 114.616 416.615 111.887L451.545 59.4912C454.82 55.6707 453.728 49.667 449.362 46.938Z" fill="#231F20" transform="matrix(1.0017 0 -0 1 354 26)"/><path d="M184.108 114.07C185.745 114.07 187.382 113.525 189.02 112.433 193.386 109.704 194.478 103.7 191.749 99.3339L157.91 46.3922C155.181 42.0259 149.177 40.9343 144.811 43.6633 140.444 46.3922 139.353 52.3959 142.082 56.7623L175.921 109.704C178.104 112.979 180.833 114.07 184.108 114.07Z" fill="#231F20" transform="matrix(1.0017 0 -0 1 354 26)"/><path d="M118.067 171.924 62.942 141.906C58.5756 139.722 52.5719 141.36 50.3888 145.726 47.6598 150.092 49.2972 156.096 54.2093 158.279L109.334 188.298C110.972 188.844 112.063 189.389 113.701 189.389 116.975 189.389 120.25 187.752 121.887 184.477 124.071 180.111 122.433 174.107 118.067 171.924Z" fill="#231F20" transform="matrix(1.0017 0 -0 1 354 26)"/><path d="M539.963 145.726C537.78 141.36 531.776 139.722 527.41 141.906L471.739 171.924C467.373 174.107 465.736 180.111 467.919 184.477 469.556 187.752 472.831 189.389 476.106 189.389 477.743 189.389 479.38 188.844 480.472 188.298L536.143 158.279C540.509 156.096 542.146 150.092 539.963 145.726Z" fill="#231F20" transform="matrix(1.0017 0 -0 1 354 26)"/></g></g></g><g clip-path="url(#clip4)"><g clip-path="url(#clip5)"><g clip-path="url(#clip6)"><path d="M123.416 147.724C122.535 146.204 120.587 145.687 119.065 146.569L118.943 146.639C117.422 147.521 116.905 149.469 117.787 150.99 118.377 152.008 119.446 152.577 120.543 152.577 121.085 152.577 121.635 152.437 122.138 152.146L122.261 152.075C123.781 151.193 124.298 149.245 123.416 147.724Z" transform="matrix(1.00613 0 -0 1 568 231)"/><path d="M152.078 40.7755C141.196 21.927 123.626 8.4448 102.603 2.81175 81.5812-2.8213 59.6233 0.0697207 40.7748 10.9516 21.9267 21.8334 8.44416 39.4043 2.81143 60.4265-2.8213 81.4487 0.0694023 103.407 10.9512 122.255 20.7125 139.162 36.2267 152.012 54.6362 158.435 63.3628 161.48 72.4726 163 81.5684 163 91.4583 163 101.33 161.202 110.662 157.616 112.303 156.985 113.122 155.144 112.491 153.502 111.86 151.861 110.018 151.041 108.377 151.673 83.5388 161.22 56.6495 156.882 36.5601 141.803L39.4123 126.915 40.7866 126.469C45.98 124.781 48.8325 119.183 47.1458 113.99L46.1373 110.886C45.9039 110.168 45.9052 109.408 46.1405 108.691 47.0252 105.994 46.7091 103.043 45.2729 100.594 43.8368 98.1454 41.4157 96.4285 38.6297 95.8838L31.4444 94.4798 17.5804 83.939C16.7498 83.3073 15.6626 83.123 14.67 83.4452L6.55311 86.0818C6.38088 83.1787 6.37833 80.2765 6.54197 77.3897 6.86224 77.688 7.07076 77.8908 7.19906 78.0238 7.35792 78.2884 7.55467 78.531 7.78516 78.7411 8.44798 79.3447 9.04841 79.6185 10.3091 79.6185 11.4676 79.6182 13.1826 79.3874 16.0144 78.969 18.7001 78.572 21.3718 78.1248 21.3982 78.1203 22.4689 77.9411 23.3739 77.2279 23.7999 76.2299 24.2259 75.2315 24.1135 74.0851 23.5019 73.188L19.5985 67.4626 25.1895 63.4646C25.562 63.1982 25.8727 62.8546 26.1004 62.4573L34.7671 47.3273 38.2604 43.584C41.8302 39.758 42.8489 34.1603 40.8554 29.3225 39.6794 26.469 37.6253 24.0934 35.0561 22.4924 37.8386 20.305 40.8054 18.2853 43.9584 16.4652 55.527 9.78605 68.1518 6.54929 80.6439 6.42545L74.9593 13.5564 53.8791 20.9465C53.0231 21.2463 52.3354 21.8977 51.9897 22.7363L46.1026 37.0077C45.6846 38.0217 45.8173 39.1786 46.4544 40.0713L55.0526 52.1154C53.8212 53.2389 52.6226 54.8753 51.1909 56.9071 50.5631 57.7981 49.9703 58.6396 49.5606 59.1114 49.2044 59.5221 48.8478 59.9232 48.4944 60.3205 46.6451 62.401 44.733 64.5528 43.3746 67.4269 40.3877 73.7492 40.991 81.0976 44.9488 86.6046 48.7758 91.9291 55.0851 94.6358 61.819 93.8438 62.9161 93.7151 63.939 93.462 64.9288 93.2169 67.6581 92.5417 68.5227 92.4742 69.3982 93.2936 69.8242 93.6925 69.8633 93.768 69.8547 95.1207 69.8487 95.9815 69.842 97.0525 70.1387 98.2753 70.614 100.232 71.8426 101.584 72.8295 102.67 73.3201 103.21 73.8275 103.768 73.9839 104.143 74.9768 106.522 74.5445 107.84 73.597 110.727 73.5159 110.974 73.4331 111.226 73.35 111.485 71.9107 115.94 73.917 120.36 75.6871 124.259 76.262 125.525 76.8048 126.72 77.1604 127.776 80.0228 136.27 82.1686 138.215 83.8906 138.998 84.7925 139.408 85.7259 139.588 86.6689 139.588 91.258 139.587 96.0468 135.326 98.2467 132.625 99.6283 130.929 99.9687 129.23 100.217 127.99 100.341 127.373 100.438 126.886 100.624 126.567 100.909 126.08 101.244 125.703 101.668 125.224 102.522 124.263 103.584 123.068 104.272 120.9 104.795 119.253 105.175 118.85 106.433 117.51 106.652 117.277 106.885 117.028 107.136 116.756 111.376 112.142 110.284 108.617 109.127 104.885 108.154 101.745 109.856 99.7372 113.972 95.9045 115.756 94.243 117.601 92.5251 119.027 90.4609 119.651 89.5574 121.549 86.809 120.374 84.0848 119.223 81.4137 116.296 80.9648 113.945 80.6045 113.016 80.4618 111.613 80.2466 111.166 79.9547 109.196 78.6669 107.991 75.9793 106.826 73.3799 106.594 72.8626 106.365 72.3519 106.133 71.8563 105.719 70.9719 105.305 69.9018 104.868 68.7691 103.709 65.7715 102.397 62.3736 100.162 60.005 98.1537 57.8768 94.3674 56.8517 91.0269 55.9469 89.9034 55.6429 88.843 55.3557 88.1435 55.0975 87.5574 54.881 86.9213 54.8419 86.3145 54.9845 84.6887 55.3656 83.6744 55.7855 82.9212 56.3891 82.7222 56.5486 82.1329 57.0723 81.7878 57.914 80.6223 57.3547 79.0197 56.2866 78.0334 55.6292 78.013 55.6155 77.9923 55.6018 77.9719 55.5881 78.3043 54.258 78.0035 53.1905 77.6883 52.5239 75.9099 48.7622 70.0066 49.0566 68.842 49.1556 68.1805 49.211 67.3435 49.2406 66.4582 49.2718 65.0676 49.3212 63.5305 49.3766 62.0097 49.5472L62.088 49.3288C63.2424 46.1124 66.3139 43.9514 69.7312 43.9514L71.5411 43.9514C73.2987 43.9514 74.7244 42.5258 74.7244 40.7682 74.7244 39.0105 73.2987 37.5849 71.5411 37.5849L69.7312 37.5849C64.6578 37.5849 60.012 40.255 57.4082 44.4576L52.6598 37.8061 57.3314 26.4824 77.9302 19.2607C78.495 19.0627 78.9929 18.7093 79.3664 18.241L88.5233 6.75495C111.921 8.9806 133.945 22.0989 146.565 43.9581 149.927 49.7806 152.414 55.9103 154.067 62.1797L152.717 63.3831C150.956 64.9549 149.924 67.2092 149.884 69.5685 149.884 69.5943 149.883 69.6198 149.882 69.6452L147.684 63.599C147.356 62.6967 146.874 61.8693 146.25 61.14L142.328 56.5483C140.808 54.7683 138.594 53.748 136.254 53.748L131.453 53.748C129.749 53.748 128.192 54.6814 127.388 56.1831 126.584 57.6851 126.672 59.4991 127.617 60.9165L128.103 61.6458C125.001 64.3134 121.413 66.448 117.592 67.8876L111.012 55.2828 111.012 52.4707C111.012 51.601 110.656 50.7684 110.027 50.1683L104.101 44.5114C103.774 44.1994 103.384 43.9607 102.958 43.8107L97.6239 41.9362C95.9643 41.3523 94.1478 42.2256 93.5652 43.8839 92.9823 45.5429 93.8543 47.3598 95.5129 47.9427L100.2 49.5902 104.645 53.833 104.645 56.064C104.645 56.5769 104.77 57.0825 105.007 57.5374L113.245 73.3175C113.986 74.7374 115.668 75.3862 117.168 74.831L119.567 73.9466C125.14 71.8913 130.305 68.5851 134.505 64.386 135.578 63.3128 135.745 61.6321 134.903 60.3692L134.734 60.1148 136.254 60.1148C136.729 60.1148 137.179 60.3221 137.488 60.6838L141.41 65.2755C141.536 65.4235 141.634 65.5909 141.7 65.7746L146.029 77.6759C146.4 78.6984 147.269 79.46 148.33 79.6955 148.56 79.7462 148.79 79.771 149.02 79.771 149.855 79.771 150.668 79.4421 151.271 78.8385L153.331 76.7784C154.635 75.4735 155.534 73.8224 155.963 71.9922 159.149 97.5262 149.137 123.94 127.974 140.55 126.591 141.635 126.35 143.636 127.435 145.019 128.521 146.403 130.521 146.644 131.905 145.558 147.184 133.566 157.68 116.415 161.46 97.2626 165.276 77.9258 161.945 57.8644 152.078 40.7755ZM15.0527 90.0152 28.1796 99.996C28.5677 100.291 29.0178 100.493 29.496 100.586L37.4079 102.132C38.4177 102.33 39.2601 102.927 39.7806 103.814 40.3011 104.702 40.4106 105.728 40.0904 106.706 39.4314 108.716 39.4282 110.842 40.0818 112.853L41.0903 115.956C41.693 117.811 40.6736 119.81 38.8191 120.413L35.6556 121.441C34.5519 121.8 33.7311 122.73 33.5131 123.869L30.9668 137.161C25.3691 132.037 20.4543 125.982 16.4649 119.072 11.5978 110.643 8.55686 101.652 7.21657 92.5611L15.0527 90.0152ZM33.6057 39.2403 29.8608 43.2526C29.6937 43.4319 29.5476 43.6299 29.4256 43.8425L20.9216 58.6896 13.3635 64.094C11.9557 65.1007 11.6099 67.0468 12.5847 68.4769L15.4115 72.6232C13.7821 72.8658 12.3199 73.0657 11.3476 73.1717 11.1607 72.9925 10.9653 72.8107 10.7631 72.6229 10.0064 71.9199 8.95481 70.9811 7.38721 69.6093 9.97261 53.6076 17.6833 38.5326 29.8102 27.0255 32.1323 27.7568 34.038 29.489 34.9689 31.7484 36.0163 34.2895 35.4808 37.2305 33.6057 39.2403ZM59.5615 56.6365C60.9814 55.8374 64.2771 55.7205 66.6832 55.6352 67.6476 55.6011 68.5587 55.5687 69.3724 55.5005 69.8019 55.4646 70.2788 55.4713 70.7286 55.5063 70.5277 56.022 70.4625 56.5881 70.5497 57.1496 70.7028 58.1375 71.3119 58.9955 72.1931 59.467 72.7903 59.7866 73.6216 60.3409 74.5015 60.9276 76.9895 62.5863 79.8098 64.4662 82.4592 64.6349 84.8686 64.7912 86.2092 63.4181 86.7835 62.8333 86.8293 62.7868 86.8726 62.7404 86.9185 62.698 87.2419 62.4344 87.545 62.081 87.7704 61.6548 88.2795 61.8002 88.8143 61.9451 89.3625 62.0938 91.2475 62.6041 94.7562 63.5541 95.5314 64.3755 96.9083 65.8351 97.9815 68.6134 98.9286 71.0645 99.4071 72.3032 99.8591 73.4723 100.366 74.5563 100.584 75.0214 100.798 75.5005 101.016 75.9857 102.485 79.2623 104.15 82.9762 107.682 85.285 109.284 86.3321 111.247 86.6329 112.98 86.8987 113.189 86.9309 113.429 86.9678 113.673 87.0079 112.645 88.4425 111.181 89.8057 109.634 91.2463 105.693 94.9163 100.788 99.4841 103.047 106.771 104.113 110.212 104.163 110.584 102.448 112.449 102.215 112.703 101.997 112.935 101.793 113.152 100.325 114.715 99.1648 115.95 98.2046 118.974 97.9258 119.852 97.5644 120.259 96.9083 120.998 96.3836 121.589 95.73 122.325 95.1274 123.356 94.4053 124.592 94.1666 125.782 93.9752 126.738 93.7864 127.679 93.6795 128.151 93.3102 128.604 92.4694 129.637 90.9012 131.135 89.2912 132.158 87.7949 133.108 86.9213 133.238 86.6237 133.22 86.284 132.856 85.0535 131.261 83.1943 125.743 82.7359 124.382 82.0998 122.981 81.4847 121.627 80.1288 118.64 78.7271 115.552 79.409 113.442 79.4896 113.193 79.5692 112.95 79.6475 112.712 80.7369 109.391 81.7652 106.256 79.8601 101.691 79.2801 100.3 78.3565 99.2845 77.5425 98.388 77.0156 97.8083 76.4187 97.1512 76.3267 96.773 76.2146 96.3117 76.2181 95.7791 76.2222 95.1624 76.2331 93.499 76.2496 90.9855 73.7508 88.6456 70.2279 85.348 66.1197 86.3639 63.401 87.0363 62.5659 87.2426 61.777 87.438 61.0779 87.5202 56.6056 88.0442 52.6127 86.3569 50.12 82.888 47.5123 79.2597 47.1337 74.377 49.1324 70.146 50.0999 68.0987 51.5615 66.4537 53.2539 64.5499 53.6235 64.1338 53.9966 63.7142 54.3697 63.2844 54.9905 62.5688 55.6737 61.5997 56.3961 60.5736 57.2585 59.3495 58.8643 57.0701 59.5615 56.6365Z" transform="matrix(1.00613 0 -0 1 568 231)"/><path d="M130.534 109.604 129.003 103.831C128.668 102.57 127.598 101.641 126.304 101.487 125.007 101.335 123.75 101.983 123.128 103.13 122.779 103.773 122.465 104.454 122.161 105.113 121.65 106.221 121.121 107.367 120.572 108 120.263 108.355 119.469 108.738 118.703 109.108 116.87 109.992 114.36 111.204 113.401 114.26 112.806 116.157 113.028 117.657 113.19 118.752 113.331 119.702 113.363 120.031 113.109 120.628L113.077 120.702C112.063 123.08 110.178 127.507 112.822 131.27 114.708 133.956 116.691 134.646 118.233 134.646 118.533 134.647 118.818 134.621 119.081 134.578 122.329 134.047 124.77 130.669 126.765 123.947L130.509 111.327C130.676 110.766 130.685 110.17 130.534 109.604ZM120.661 122.136C119.645 125.563 118.745 127.163 118.226 127.873 118.166 127.796 118.101 127.71 118.031 127.611 117.423 126.744 118.332 124.61 118.934 123.197L118.966 123.123C119.936 120.845 119.677 119.096 119.488 117.819 119.367 117.001 119.324 116.649 119.476 116.166 119.6 115.769 120.346 115.384 121.47 114.842 121.968 114.601 122.517 114.337 123.07 114.016L120.661 122.136Z" transform="matrix(1.00613 0 -0 1 568 231)"/><path d="M85.9666 37.8402 85.7517 37.7651C84.094 37.1844 82.2762 38.0564 81.6942 39.7153 81.1122 41.3746 81.9855 43.1909 83.6445 43.7728L83.859 43.848C84.2076 43.9702 84.5629 44.0281 84.9128 44.0281 86.227 44.0281 87.4571 43.2077 87.9169 41.8977 88.4988 40.2384 87.6255 38.4218 85.9666 37.8402Z" transform="matrix(1.00613 0 -0 1 568 231)"/></g></g></g></g></svg>